<svg width="90" height="4" viewBox="0 0 90 4" fill="none" xmlns="http://www.w3.org/2000/svg">
<rect x="2.06689" y="0.0175781" width="1" height="4" transform="rotate(30 2.06689 0.0175781)" fill="#FFC500"/>
<rect x="5.06689" y="0.0175781" width="1" height="4" transform="rotate(30 5.06689 0.0175781)" fill="#FFC500"/>
<rect x="8.06689" y="0.0175781" width="1" height="4" transform="rotate(30 8.06689 0.0175781)" fill="#FFC500"/>
<rect x="11.0669" y="0.0175781" width="1" height="4" transform="rotate(30 11.0669 0.0175781)" fill="#FFC500"/>
<rect x="14.0669" y="0.0175781" width="1" height="4" transform="rotate(30 14.0669 0.0175781)" fill="#FFC500"/>
<rect x="17.0669" y="0.0175781" width="1" height="4" transform="rotate(30 17.0669 0.0175781)" fill="#FFC500"/>
<rect x="20.0669" y="0.0175781" width="1" height="4" transform="rotate(30 20.0669 0.0175781)" fill="#FFC500"/>
<rect x="23.0669" y="0.0175781" width="1" height="4" transform="rotate(30 23.0669 0.0175781)" fill="#FFC500"/>
<rect x="26.0669" y="0.0175781" width="1" height="4" transform="rotate(30 26.0669 0.0175781)" fill="#FFC500"/>
<rect x="29.0669" y="0.0175781" width="1" height="4" transform="rotate(30 29.0669 0.0175781)" fill="#FFC500"/>
<rect x="32.0669" y="0.0175781" width="1" height="4" transform="rotate(30 32.0669 0.0175781)" fill="#FFC500"/>
<rect x="35.0669" y="0.0175781" width="1" height="4" transform="rotate(30 35.0669 0.0175781)" fill="#FFC500"/>
<rect x="38.0669" y="0.0175781" width="1" height="4" transform="rotate(30 38.0669 0.0175781)" fill="#FFC500"/>
<rect x="41.0669" y="0.0175781" width="1" height="4" transform="rotate(30 41.0669 0.0175781)" fill="#FFC500"/>
<rect x="44.0669" y="0.0175781" width="1" height="4" transform="rotate(30 44.0669 0.0175781)" fill="#FFC500"/>
<rect x="47.0669" y="0.0175781" width="1" height="4" transform="rotate(30 47.0669 0.0175781)" fill="#FFC500"/>
<rect x="50.0669" y="0.0175781" width="1" height="4" transform="rotate(30 50.0669 0.0175781)" fill="#FFC500"/>
<rect x="53.0669" y="0.0175781" width="1" height="4" transform="rotate(30 53.0669 0.0175781)" fill="#FFC500"/>
<rect x="56.0669" y="0.0175781" width="1" height="4" transform="rotate(30 56.0669 0.0175781)" fill="#FFC500"/>
<rect x="59.0669" y="0.0175781" width="1" height="4" transform="rotate(30 59.0669 0.0175781)" fill="#FFC500"/>
<rect x="62.0669" y="0.0175781" width="1" height="4" transform="rotate(30 62.0669 0.0175781)" fill="#FFC500"/>
<rect x="65.0669" y="0.0175781" width="1" height="4" transform="rotate(30 65.0669 0.0175781)" fill="#FFC500"/>
<rect x="68.0669" y="0.0175781" width="1" height="4" transform="rotate(30 68.0669 0.0175781)" fill="#FFC500"/>
<rect x="71.0669" y="0.0175781" width="1" height="4" transform="rotate(30 71.0669 0.0175781)" fill="#FFC500"/>
<rect x="74.0669" y="0.0175781" width="1" height="4" transform="rotate(30 74.0669 0.0175781)" fill="#FFC500"/>
<rect x="77.0669" y="0.0175781" width="1" height="4" transform="rotate(30 77.0669 0.0175781)" fill="#FFC500"/>
<rect x="80.0669" y="0.0175781" width="1" height="4" transform="rotate(30 80.0669 0.0175781)" fill="#FFC500"/>
<rect x="83.0669" y="0.0175781" width="1" height="4" transform="rotate(30 83.0669 0.0175781)" fill="#FFC500"/>
<rect x="86.0669" y="0.0175781" width="1" height="4" transform="rotate(30 86.0669 0.0175781)" fill="#FFC500"/>
<rect x="89.0669" y="0.0175781" width="1" height="4" transform="rotate(30 89.0669 0.0175781)" fill="#FFC500"/>
</svg>
