<svg width="428" height="46" viewBox="0 0 428 46" fill="none" xmlns="http://www.w3.org/2000/svg">
<path d="M72.7 35.22V44.89H45.04V0.899994H72.38V10.58H55.1V17.87H70.81L67.14 27.42H55.1V35.22H72.7Z" fill="#1D2737"/>
<path d="M99.5 27.99V44.89H89.45V27.99L74.68 0.899994H86.11L94.48 17.87L102.83 0.899994H114.27L99.5 27.99Z" fill="#1D2737"/>
<path d="M113.23 22.9C113.23 10 122.49 0 135.12 0C147.75 0 156.97 10 156.97 22.9C156.97 35.8 147.75 45.78 135.12 45.78C122.49 45.78 113.23 35.84 113.23 22.9ZM146.88 22.9C146.88 15.04 142.25 9.83 135.08 9.83C127.91 9.83 123.33 15 123.33 22.9C123.33 30.8 127.96 36 135.12 36C142.28 36 146.92 30.75 146.92 22.9H146.88Z" fill="#1D2737"/>
<path d="M196.98 0.899994V44.89H189.44L172.47 21.01V44.89H162.42V0.899994H169.96L186.93 24.78V0.899994H196.98Z" fill="#1D2737"/>
<path d="M243.51 22.9C243.51 35.34 234.28 44.9 222.15 44.9H204.55V0.899994H222.15C234.28 0.899994 243.51 10.45 243.51 22.9ZM233.84 22.9C233.84 15.36 229.06 10.58 222.15 10.58H214.6V35.22H222.15C229.06 35.22 233.84 30.44 233.84 22.9V22.9Z" fill="#1D2737"/>
<path d="M34.67 22.08C35.9063 21.0182 36.8913 19.6949 37.5537 18.2059C38.2161 16.7169 38.5393 15.0992 38.5 13.47C38.5 5.87 32.28 0.899994 24.61 0.899994H0L3.48 10.58H7.39001V44.89H25.87C33.73 44.89 40.07 39.8 40.07 32.01C40.1159 30.0273 39.6415 28.0672 38.6941 26.325C37.7466 24.5827 36.3592 23.1191 34.67 22.08V22.08ZM17.45 10.33H24.61C25.1243 10.3066 25.6378 10.3917 26.1171 10.5797C26.5964 10.7677 27.0308 11.0545 27.392 11.4214C27.7532 11.7882 28.0332 12.227 28.2138 12.7092C28.3943 13.1913 28.4714 13.7061 28.44 14.22C28.4666 14.7332 28.3863 15.2464 28.2042 15.7269C28.0221 16.2075 27.7421 16.6449 27.382 17.0116C27.0219 17.3783 26.5896 17.6661 26.1124 17.8569C25.6352 18.0477 25.1236 18.1373 24.61 18.12H17.45V10.33ZM25.87 35.47H17.45V27.05H25.87C26.9866 27.05 28.0574 27.4935 28.8469 28.2831C29.6364 29.0726 30.08 30.1434 30.08 31.26C30.08 32.3766 29.6364 33.4474 28.8469 34.2369C28.0574 35.0264 26.9866 35.47 25.87 35.47V35.47Z" fill="#1D2737"/>
<path d="M361.58 10.58V0.899994H326.83L330.31 10.58H334.88V44.89H344.93V28.74H361.27V19.06H344.93V10.58H361.58Z" fill="#1D2737"/>
<path d="M395.96 35.22L392.29 44.89H367.58V0.899994H377.63V35.22H395.96Z" fill="#1D2737"/>
<path d="M413.15 27.99V44.89H403.1V27.99L388.33 0.899994H399.76L408.13 17.87L416.48 0.899994H427.92L413.15 27.99Z" fill="#1D2737"/>
<path d="M270.45 19.53C268.14 20.08 265.82 20.53 263.45 20.98V42.07C261.39 42.43 259.33 42.73 257.27 42.95V21.87C254.961 22.1132 252.642 22.2367 250.32 22.24V16.3C257.096 16.1779 263.835 15.265 270.4 13.58L270.45 19.53Z" fill="#1D2737"/>
<path d="M295.44 6.76999V33.77C293.38 34.3033 291.32 34.86 289.26 35.44V24.74C286.43 25.53 283.6 26.35 280.76 27.15V37.88C278.7 38.4667 276.64 39.0333 274.58 39.58V12.58C276.64 12.04 278.7 11.47 280.76 10.89V21.2C283.6 20.4 286.43 19.58 289.26 18.79V8.43999C291.32 7.85999 293.38 7.30332 295.44 6.76999Z" fill="#1D2737"/>
<path d="M318.49 24.4V30.4C312.769 30.4682 307.071 31.1385 301.49 32.4V5.39999C307.006 4.15359 312.636 3.48333 318.29 3.39999V9.34999C314.733 9.37637 311.184 9.66717 307.67 10.22V14.7C310.864 14.2008 314.088 13.9135 317.32 13.84V19.71C314.088 19.7835 310.864 20.0708 307.67 20.57V25.36C311.247 24.7666 314.864 24.4457 318.49 24.4V24.4Z" fill="#1D2737"/>
<path d="M250.37 2V7.31C264.55 7.34 283.23 2 283.23 2H250.37Z" fill="#1D2737"/>
<path d="M319.37 43.74V38.43C304.27 38.43 286.55 43.74 286.55 43.74H319.37Z" fill="#282828"/>
</svg>
