<svg width="128" height="20" viewBox="0 0 128 20" fill="none" xmlns="http://www.w3.org/2000/svg">
<path d="M44.3986 12.8687V15.1227H37.951V4.86865H44.324V7.12506H40.296V8.82436H43.958L43.1025 11.0505H40.296V12.8687H44.3986Z" fill="#042A41"/>
<path d="M50.6457 11.1833V15.1227H48.303V11.1833L44.8601 4.86865H47.5245L49.4755 8.82436L51.4219 4.86865H54.0885L50.6457 11.1833Z" fill="#042A41"/>
<path d="M53.8461 9.99668C53.8461 6.98969 56.0046 4.65869 58.9487 4.65869C61.8927 4.65869 64.0419 6.98969 64.0419 9.99668C64.0419 13.0037 61.8927 15.33 58.9487 15.33C56.0046 15.33 53.8461 13.013 53.8461 9.99668ZM61.6899 9.99668C61.6899 8.16452 60.6107 6.95007 58.9394 6.95007C57.268 6.95007 56.2004 8.15519 56.2004 9.99668C56.2004 11.8382 57.2797 13.0503 58.9487 13.0503C60.6177 13.0503 61.6993 11.8265 61.6993 9.99668H61.6899Z" fill="#042A41"/>
<path d="M73.3683 4.86865V15.1227H71.6107L67.655 9.5563V15.1227H65.3123V4.86865H67.0699L71.0256 10.4351V4.86865H73.3683Z" fill="#042A41"/>
<path d="M84.2144 9.99686C84.2144 12.8966 82.0629 15.1251 79.2354 15.1251H75.1328V4.86865H79.2354C82.0629 4.86865 84.2144 7.09476 84.2144 9.99686ZM81.9603 9.99686C81.9603 8.23928 80.8461 7.12506 79.2354 7.12506H77.4755V12.8687H79.2354C80.8461 12.8687 81.9603 11.7544 81.9603 9.99686Z" fill="#042A41"/>
<path d="M35.5338 9.80572C35.822 9.55821 36.0516 9.24976 36.206 8.90266C36.3604 8.55557 36.4357 8.1785 36.4266 7.79872C36.4266 6.02716 34.9767 4.86865 33.1888 4.86865H27.4522L28.2634 7.12506H29.1748V15.1227H33.4825C35.3147 15.1227 36.7925 13.9363 36.7925 12.1204C36.8032 11.6582 36.6926 11.2013 36.4718 10.7952C36.2509 10.3891 35.9275 10.0479 35.5338 9.80572ZM31.5198 7.06679H33.1888C33.3087 7.06133 33.4284 7.08116 33.5401 7.12499C33.6518 7.16882 33.7531 7.23567 33.8373 7.32119C33.9215 7.40671 33.9868 7.50899 34.0288 7.62138C34.0709 7.73377 34.0889 7.85376 34.0816 7.97355C34.0878 8.09318 34.0691 8.2128 34.0266 8.32481C33.9842 8.43683 33.9189 8.5388 33.835 8.62427C33.751 8.70974 33.6502 8.77684 33.539 8.82132C33.4278 8.86579 33.3085 8.88667 33.1888 8.88264H31.5198V7.06679ZM33.4825 12.9269H31.5198V10.9642H33.4825C33.7428 10.9642 33.9924 11.0676 34.1764 11.2517C34.3605 11.4357 34.4639 11.6853 34.4639 11.9456C34.4639 12.2058 34.3605 12.4555 34.1764 12.6395C33.9924 12.8235 33.7428 12.9269 33.4825 12.9269Z" fill="#042A41"/>
<path d="M111.737 7.12506V4.86865H103.636L104.447 7.12506H105.513V15.1227H107.855V11.3582H111.664V9.10175H107.855V7.12506H111.737Z" fill="#042A41"/>
<path d="M119.751 12.8687L118.895 15.1227H113.135V4.86865H115.478V12.8687H119.751Z" fill="#042A41"/>
<path d="M123.758 11.1833V15.1227H121.415V11.1833L117.972 4.86865H120.636L122.587 8.82436L124.534 4.86865H127.2L123.758 11.1833Z" fill="#042A41"/>
<path d="M90.4941 9.21116C89.9557 9.33937 89.4149 9.44426 88.8624 9.54916V14.4652C88.3823 14.5492 87.9021 14.6191 87.4219 14.6704V9.75662C86.8837 9.8133 86.343 9.84209 85.8018 9.84287V8.45825C87.3814 8.42978 88.9523 8.21699 90.4825 7.82422L90.4941 9.21116Z" fill="#042A41"/>
<path d="M96.3193 6.23682V12.5305C95.8391 12.6548 95.3589 12.7846 94.8788 12.9198V10.4256C94.2191 10.6098 93.5594 10.8009 92.8974 10.9874V13.4886C92.4172 13.6253 91.937 13.7574 91.4568 13.8848V7.59113C91.937 7.46526 92.4172 7.33239 92.8974 7.19719V9.60045C93.5594 9.41397 94.2191 9.22283 94.8788 9.03868V6.62609C95.3589 6.4909 95.8391 6.36114 96.3193 6.23682Z" fill="#042A41"/>
<path d="M101.692 10.3463V11.7449C100.359 11.7608 99.0304 11.917 97.7296 12.2111V5.91737C99.0153 5.62684 100.328 5.4706 101.646 5.45117V6.83812C100.817 6.84427 99.9891 6.91205 99.1701 7.04092V8.08521C99.9147 7.96884 100.666 7.90187 101.42 7.88474V9.25304C100.666 9.27017 99.9147 9.33714 99.1701 9.45351V10.5701C100.004 10.4317 100.847 10.3569 101.692 10.3463Z" fill="#042A41"/>
<path d="M85.8135 5.125V6.36276C89.1189 6.36975 93.4732 5.125 93.4732 5.125H85.8135Z" fill="#042A41"/>
<path d="M101.897 14.8545V13.6167C98.3776 13.6167 94.2471 14.8545 94.2471 14.8545H101.897Z" fill="#042A41"/>
<path d="M15.0233 11.9512C14.6641 11.9509 14.3119 11.8515 14.0056 11.6639C13.6992 11.4764 13.4505 11.208 13.2867 10.8883H8.02331C6.95105 10.8883 6.44755 11.5993 6.44755 12.1774C6.44755 13.8324 8.84615 13.6063 8.84615 13.6063V12.0818L12.1445 15.1307H7.91142C6.00466 15.1307 4.60839 13.7811 4.60839 12.1634C4.60839 10.3941 5.88112 9.10509 7.99767 9.10509H9.30303L5.15151 5.92094L7.31468 5.89064L10.0862 8.31721L7.2261 4.19367L9.17715 4.59227L11.7319 8.15637L9.99533 4.01185L12.2051 5.12607L13.4172 8.87665C13.6236 8.57894 13.9086 8.34446 14.2405 8.19939C14.5723 8.05433 14.938 8.0044 15.2967 8.05518C15.6553 8.10597 15.9927 8.25546 16.2713 8.48697C16.5499 8.71848 16.7586 9.02288 16.8741 9.36616H23.2238L16.9907 2.89996C15.1242 1.04265 12.5982 0 9.96503 0C7.3319 0 4.80589 1.04265 2.93939 2.89996C2.00797 3.82917 1.26893 4.93293 0.764556 6.14807C0.26018 7.36321 0.000372268 8.66588 0 9.98155C0 10.3125 0.018648 10.6436 0.04662 10.9746C0.180706 12.3799 0.611813 13.7408 1.3114 14.9671C2.01098 16.1933 2.96308 17.257 4.10465 18.0876C5.24622 18.9182 6.55121 19.4968 7.93323 19.7852C9.31524 20.0735 10.7427 20.0649 12.1212 19.7601C13.9672 19.3566 15.6583 18.431 16.993 17.0934L23.2238 10.6202H16.8741C16.7438 11.0079 16.4951 11.3449 16.163 11.5837C15.831 11.8225 15.4323 11.9511 15.0233 11.9512Z" fill="#09A9CE"/>
</svg>
