<svg xmlns="http://www.w3.org/2000/svg" viewBox="0 0 475.24 333.78"><defs><style>.cls-1{fill:#E5E5E5;}</style></defs><title>Asset 8</title><g id="Layer_2" data-name="Layer 2"><g id="Layer_3" data-name="Layer 3"><path class="cls-1" d="M175.73,2.18a7.49,7.49,0,0,0-2.06,6.6L160.32,2l-9,3,15.87,6.48-16.5-2.75-6.35,4.2,18.85,3.45-14,.93-5.76,5.93,19.82-2.62-3.53,3.53c-5.72,5.72-5.68,12.64-.9,17.42,4.37,4.37,11.8,4.24,16.95-.91l11.43-11.43L170,29.8l4.12,4.12s-5.87,7.09-10.34,2.62c-1.56-1.56-2.12-4.85.78-7.74l14.21-14.22.06,0a7.46,7.46,0,1,0-3.11-12.42Z"/><path class="cls-1" d="M390.82,2.18a7.47,7.47,0,0,0-2.07,6.6L375.4,2l-9,3,15.87,6.48-16.5-2.75-6.35,4.2,18.85,3.45-14,.93-5.76,5.93,19.82-2.62-3.53,3.53c-5.72,5.72-5.68,12.64-.89,17.42,4.36,4.37,11.79,4.24,16.94-.91l11.43-11.43-17.15.67,4.12,4.12s-5.87,7.09-10.34,2.62c-1.56-1.56-2.12-4.85.78-7.74l14.21-14.22.07,0a7.46,7.46,0,1,0-3.11-12.42Z"/><path class="cls-1" d="M32.35,146.78a7.44,7.44,0,0,0-2.07,6.59l-13.35-6.83-9,3L23.8,156,7.3,153.23,1,157.42l18.86,3.45-14,.93L0,167.73l19.82-2.61-3.53,3.52c-5.71,5.72-5.68,12.64-.89,17.42,4.37,4.37,11.79,4.25,16.94-.9l11.43-11.44-17.15.67,4.12,4.12s-5.87,7.09-10.34,2.62c-1.56-1.56-2.12-4.85.78-7.74l14.21-14.21h.07a7.46,7.46,0,1,0-3.11-12.41Z"/><path class="cls-1" d="M247.43,146.78a7.44,7.44,0,0,0-2.07,6.59L232,146.54l-9,3L238.89,156l-16.51-2.75L216,157.42l18.86,3.45-14,.93-5.77,5.93,19.82-2.61-3.53,3.52c-5.71,5.72-5.68,12.64-.89,17.42,4.37,4.37,11.79,4.25,16.94-.9l11.43-11.44-17.15.67,4.12,4.12s-5.87,7.09-10.34,2.62c-1.56-1.56-2.12-4.85.78-7.74l14.21-14.21h.07a7.46,7.46,0,1,0-3.11-12.41Z"/><path class="cls-1" d="M462.51,146.78a7.43,7.43,0,0,0-2.06,6.59l-13.36-6.83-9,3L454,156l-16.51-2.75-6.34,4.19L450,160.87l-14,.93-5.77,5.93L450,165.12l-3.52,3.52c-5.72,5.72-5.68,12.64-.9,17.42,4.37,4.37,11.79,4.25,16.94-.9l11.43-11.44-17.15.67,4.12,4.12s-5.87,7.09-10.34,2.62c-1.56-1.56-2.11-4.85.78-7.74l14.21-14.21h.07a7.46,7.46,0,1,0-3.11-12.41Z"/><path class="cls-1" d="M104,291.37A7.46,7.46,0,0,0,102,298l-13.36-6.83-9,2.95,15.88,6.48L79,297.82,72.65,302l18.85,3.45-14,.93-5.77,5.93,19.82-2.62L88,313.24c-5.72,5.72-5.68,12.63-.9,17.42,4.37,4.37,11.79,4.24,16.94-.91l11.44-11.43L98.32,319l4.11,4.12s-5.86,7.09-10.33,2.62c-1.57-1.56-2.12-4.85.77-7.75l14.21-14.21.07,0A7.46,7.46,0,1,0,104,291.37Z"/><path class="cls-1" d="M319.12,291.37a7.46,7.46,0,0,0-2.06,6.6l-13.36-6.83-9,2.95,15.88,6.48-16.51-2.75-6.34,4.2,18.85,3.45-14,.93-5.77,5.93,19.82-2.62-3.52,3.53c-5.72,5.72-5.68,12.63-.9,17.42,4.37,4.37,11.79,4.24,16.94-.91l11.44-11.43L313.4,319l4.11,4.12s-5.86,7.09-10.33,2.62c-1.56-1.56-2.12-4.85.77-7.75l14.22-14.21.06,0a7.46,7.46,0,1,0-3.11-12.42Z"/></g></g></svg>