<svg xmlns="http://www.w3.org/2000/svg" viewBox="0 0 545.69 85.8"><defs><style>.cls-1{fill:#112f41;}.cls-2{fill:#09a9ce;}</style></defs><title>Logo-ForOnWhite</title><g id="Layer_2" data-name="Layer 2"><g id="Layer_1-2" data-name="Layer 1"><polygon class="cls-1" points="190.47 55.22 190.47 64.89 162.81 64.89 162.81 20.9 190.15 20.9 190.15 30.58 172.87 30.58 172.87 37.87 188.58 37.87 184.91 47.42 172.87 47.42 172.87 55.22 190.47 55.22"/><polygon class="cls-1" points="217.27 47.99 217.27 64.89 207.22 64.89 207.22 47.99 192.45 20.9 203.88 20.9 212.25 37.87 220.6 20.9 232.04 20.9 217.27 47.99"/><path class="cls-1" d="M231,42.9C231,30,240.26,20,252.89,20S274.74,30,274.74,42.9s-9.22,22.88-21.85,22.88S231,55.84,231,42.9Zm33.65,0c0-7.86-4.63-13.07-11.8-13.07S241.1,35,241.1,42.9,245.73,56,252.89,56,264.69,50.75,264.69,42.9Z"/><polygon class="cls-1" points="314.75 20.9 314.75 64.89 307.21 64.89 290.24 41.01 290.24 64.89 280.19 64.89 280.19 20.9 287.73 20.9 304.7 44.78 304.7 20.9 314.75 20.9"/><path class="cls-1" d="M361.28,42.9c0,12.44-9.23,22-21.36,22h-17.6v-44h17.6C352.05,20.9,361.28,30.45,361.28,42.9Zm-9.67,0c0-7.54-4.78-12.32-11.69-12.32h-7.55V55.22h7.55C346.83,55.22,351.61,50.44,351.61,42.9Z"/><path class="cls-1" d="M152.44,42.08a11,11,0,0,0,3.83-8.61c0-7.6-6.22-12.57-13.89-12.57H117.77l3.48,9.68h3.91V64.89h18.48c7.86,0,14.2-5.09,14.2-12.88A11.35,11.35,0,0,0,152.44,42.08ZM135.22,30.33h7.16a3.67,3.67,0,0,1,3.83,3.89,3.71,3.71,0,0,1-3.83,3.9h-7.16Zm8.42,25.14h-8.42V47.05h8.42a4.21,4.21,0,0,1,0,8.42Z"/><polygon class="cls-1" points="479.35 30.58 479.35 20.9 444.6 20.9 448.08 30.58 452.65 30.58 452.65 64.89 462.7 64.89 462.7 48.74 479.04 48.74 479.04 39.06 462.7 39.06 462.7 30.58 479.35 30.58"/><polygon class="cls-1" points="513.73 55.22 510.06 64.89 485.35 64.89 485.35 20.9 495.4 20.9 495.4 55.22 513.73 55.22"/><polygon class="cls-1" points="530.92 47.99 530.92 64.89 520.87 64.89 520.87 47.99 506.1 20.9 517.53 20.9 525.9 37.87 534.25 20.9 545.69 20.9 530.92 47.99"/><path class="cls-1" d="M388.22,39.53c-2.31.55-4.63,1-7,1.45V62.07c-2.06.36-4.12.66-6.18.88V41.87a67.27,67.27,0,0,1-6.95.37V36.3a87.08,87.08,0,0,0,20.08-2.72Z"/><path class="cls-1" d="M413.21,26.77v27q-3.09.8-6.18,1.67V44.74c-2.83.79-5.66,1.61-8.5,2.41V57.88q-3.09.88-6.18,1.7v-27c2.06-.54,4.12-1.11,6.18-1.69V41.2c2.84-.8,5.67-1.62,8.5-2.41V28.44Q410.12,27.57,413.21,26.77Z"/><path class="cls-1" d="M436.26,44.4v6a81.51,81.51,0,0,0-17,2v-27a81.68,81.68,0,0,1,16.8-2v5.95a71.75,71.75,0,0,0-10.62.87v4.48a73.28,73.28,0,0,1,9.65-.86v5.87a73.28,73.28,0,0,0-9.65.86v4.79A71.63,71.63,0,0,1,436.26,44.4Z"/><path class="cls-1" d="M368.14,22v5.31C382.32,27.34,401,22,401,22Z"/><path class="cls-1" d="M437.14,63.74V58.43c-15.1,0-32.82,5.31-32.82,5.31Z"/><path class="cls-2" d="M64.45,51.28A8.38,8.38,0,0,1,57,46.72H34.42c-4.6,0-6.76,3.05-6.76,5.53,0,7.1,10.29,6.13,10.29,6.13V51.84L52.1,64.92H33.94c-8.18,0-14.17-5.79-14.17-12.73,0-7.59,5.46-13.12,14.54-13.12h5.6L22.1,25.41l9.28-.13L43.27,35.69,31,18l8.37,1.71L50.33,35,42.88,17.22,52.36,22l5.2,16.09a8.38,8.38,0,0,1,14.83,2.1H99.63L72.89,12.45a42.73,42.73,0,0,0-60.28,0A42.93,42.93,0,0,0,0,42.83c0,1.42.08,2.84.2,4.26A42.76,42.76,0,0,0,52,84.78a42.28,42.28,0,0,0,20.9-11.44L99.63,45.57H72.39A8.38,8.38,0,0,1,64.45,51.28Z"/></g></g></svg>